<svg width="56" height="56" viewBox="0 0 56 56" fill="none" xmlns="http://www.w3.org/2000/svg">
<path d="M27.125 1.75C13.1353 1.75 1.75 13.1353 1.75 27.125C1.75 41.1147 13.1353 52.5 27.125 52.5C41.1147 52.5 52.5 41.1147 52.5 27.125C52.5 13.1353 41.1147 1.75 27.125 1.75ZM27.125 3.5C40.1509 3.5 50.75 14.0991 50.75 27.125C50.75 40.1509 40.1509 50.75 27.125 50.75C14.0991 50.75 3.5 40.1509 3.5 27.125C3.5 14.0991 14.0991 3.5 27.125 3.5ZM26.7422 7.00684C21.5879 7.11279 16.5908 9.19434 12.8926 12.8926C5.04834 20.7402 5.04834 33.5063 12.8926 41.354C13.0635 41.5249 13.2891 41.6104 13.5112 41.6104C13.7368 41.6104 13.9624 41.5249 14.1333 41.354C14.4751 41.0122 14.4751 40.4585 14.1333 40.1167C6.96582 32.9526 6.96924 21.2974 14.1333 14.1333C18.2861 9.97705 24.2368 8.04932 30.0474 8.98242C30.5225 9.06104 30.9702 8.73291 31.0488 8.25781C31.1274 7.7793 30.7993 7.32813 30.3242 7.25293C29.1279 7.06152 27.9316 6.98291 26.7422 7.00684ZM33.8276 8.21338C33.4858 8.22705 33.1714 8.44238 33.0449 8.78076C32.874 9.23535 33.103 9.73779 33.5576 9.90869C34.1797 10.1411 34.7949 10.4077 35.3965 10.7085C35.5229 10.7734 35.6562 10.8042 35.7896 10.8042C36.1074 10.8042 36.415 10.6299 36.5723 10.3223C36.7876 9.89502 36.6133 9.36523 36.1826 9.14648C35.5298 8.81836 34.8496 8.521 34.1694 8.26465C34.0566 8.22363 33.9404 8.20996 33.8276 8.21338ZM38.8794 11.0913C38.6572 11.1187 38.4453 11.2314 38.2949 11.4194C37.9976 11.8022 38.0625 12.3491 38.4453 12.6465C39.0298 13.1045 39.5938 13.6069 40.1167 14.1333C47.2842 21.2974 47.2842 32.9526 40.1167 40.1167C39.7749 40.4619 39.7749 41.0122 40.1167 41.3574C40.2876 41.5249 40.5132 41.6138 40.7388 41.6138C40.9609 41.6138 41.1865 41.5249 41.3574 41.3574C49.2017 33.5098 49.2017 20.7402 41.3574 12.8926C40.7798 12.3184 40.1646 11.7715 39.5254 11.269C39.334 11.1221 39.0981 11.064 38.8794 11.0913ZM22.7363 17.2915C22.4355 17.2881 22.1313 17.3633 21.8511 17.5239C21.2974 17.835 20.9658 18.4058 20.9658 19.0449V35.2051C20.9658 35.8442 21.2974 36.415 21.8511 36.7295C22.1245 36.8833 22.4185 36.9585 22.7158 36.9585C23.0269 36.9585 23.3345 36.8765 23.6147 36.709L37.1089 28.6289C37.6421 28.3076 37.9634 27.7471 37.9634 27.125C37.9634 26.5063 37.6421 25.9424 37.1089 25.6211L23.6147 17.541C23.3413 17.3804 23.0405 17.2949 22.7363 17.2915ZM22.7192 19.0449L36.2134 27.125L22.7192 35.2085V19.0449ZM18.7031 41.4702C18.3613 41.4292 18.0161 41.5864 17.8384 41.9009L16.9634 43.415C16.7207 43.8354 16.8643 44.3687 17.2812 44.6113C17.418 44.6899 17.5684 44.7275 17.7188 44.7275C18.0195 44.7275 18.3135 44.5703 18.4741 44.29L19.3491 42.7759C19.5918 42.3589 19.4517 41.8223 19.0312 41.5796C18.9253 41.5215 18.8159 41.4839 18.7031 41.4702ZM35.5469 41.4702C35.4341 41.4839 35.3213 41.5215 35.2188 41.5796C34.7983 41.8223 34.6582 42.3589 34.9009 42.7793L35.7759 44.2935C35.9365 44.5737 36.2305 44.731 36.5312 44.731C36.6816 44.731 36.832 44.6899 36.9688 44.6113C37.3892 44.3687 37.5293 43.8354 37.2866 43.4185L36.4116 41.9043C36.2305 41.5898 35.8853 41.4292 35.5469 41.4702ZM22.5894 43.1758C22.251 43.2236 21.957 43.4663 21.8613 43.8184L21.4102 45.5103C21.2837 45.9751 21.564 46.4536 22.0288 46.5801C22.104 46.6006 22.1792 46.6074 22.2578 46.6074C22.6406 46.6074 22.9961 46.3511 23.1021 45.9614L23.5566 44.2695C23.6797 43.8047 23.4028 43.3228 22.938 43.1997C22.8218 43.1655 22.7021 43.1621 22.5894 43.1758ZM31.6641 43.1758C31.5513 43.1621 31.4316 43.1655 31.312 43.1997C30.8472 43.3228 30.5703 43.8047 30.6934 44.2695L31.1479 45.9614C31.2539 46.3511 31.606 46.6074 31.9922 46.6074C32.0708 46.6074 32.146 46.6006 32.2212 46.5801C32.686 46.4536 32.9663 45.9751 32.8398 45.5103L32.3887 43.8184C32.293 43.4663 31.999 43.2236 31.6641 43.1758ZM27.125 43.75C26.6396 43.75 26.25 44.1396 26.25 44.625V46.375C26.25 46.8604 26.6396 47.25 27.125 47.25C27.6104 47.25 28 46.8604 28 46.375V44.625C28 44.1396 27.6104 43.75 27.125 43.75Z" fill="#00385E"/>
</svg>
